<svg xmlns="http://www.w3.org/2000/svg" width="109" height="105" viewBox="0 0 109 105">
  <g id="Group_7" data-name="Group 7" transform="translate(-540 -284)">
    <g id="Path_91823" data-name="Path 91823" transform="translate(540 289)">
      <path id="Path_1" data-name="Path 1" d="M50,0A50,50,0,1,1,0,50,50,50,0,0,1,50,0Z" fill="none"/>
      <path id="Path_2" data-name="Path 2" d="M50,2A48.013,48.013,0,0,0,31.317,94.229,48.013,48.013,0,0,0,68.683,5.771,47.7,47.7,0,0,0,50,2m0-2A50,50,0,1,1,0,50,50,50,0,0,1,50,0Z" fill="#569848"/>
    </g>
    <g id="trailer" transform="translate(559 333)">
      <path id="Path_91717" data-name="Path 91717" d="M274.162,370.035H249.056c-.676,0-1.191.1-1.416-.933-.966-4.152-3.991-6.534-7.982-6.5-3.83.032-6.7,2.478-7.628,6.7-.129.612-.386.773-.933.773-3.862-.032-7.725.1-11.587-.064a6.854,6.854,0,0,1-6.631-6.47,74.7,74.7,0,0,1,.161-15.868,9.427,9.427,0,0,1,9.2-7.918q17.622-.145,35.212,0a9.562,9.562,0,0,1,9.366,9.334c.129,5.794.1,11.587.032,17.381,0,1.255.322,1.738,1.609,1.609,1.127-.1,2.253,0,3.38-.032C273.132,367.975,273.872,368.587,274.162,370.035ZM230.227,353.62h7.725a2.2,2.2,0,0,0,2.35-2.317c.322-3.508-.225-5.053-1.867-5.375a1.094,1.094,0,0,0-.322-.032c-5.182,0-10.4-.032-15.578.032a1.978,1.978,0,0,0-2.092,2.156c-.032,1.03-.032,2.028,0,3.058.032,1.706.708,2.446,2.414,2.446C225.3,353.652,227.748,353.62,230.227,353.62Zm24.88,0c1.191,0,2.35.032,3.541,0,1.481-.064,2.189-.966,2.221-2.736.1-3.734-.354-4.86-2.124-4.925-2.414-.1-4.828-.064-7.21,0a2.039,2.039,0,0,0-2.157,2.253c0,1.062-.032,2.156,0,3.219a2.013,2.013,0,0,0,2.189,2.189c1.19.032,2.381,0,3.54,0Z" transform="translate(-212.535 -339.675)" fill="#569848"/>
      <path id="Path_91718" data-name="Path 91718" d="M285.365,429.361a5.647,5.647,0,1,1,4.042-1.654,5.68,5.68,0,0,1-4.042,1.654Zm2.478-5.665a2.4,2.4,0,0,0-2.35-2.511,2.514,2.514,0,0,0-2.672,2.414,2.489,2.489,0,0,0,2.575,2.511,2.418,2.418,0,0,0,2.447-2.41Z" transform="translate(-258.082 -392.789)" fill="#fff"/>
    </g>
    <g id="Path_91824" data-name="Path 91824" transform="translate(600 284)">
      <path id="Path_3" data-name="Path 3" d="M24.5,48.5A24.006,24.006,0,0,1,15.158,2.386,24.006,24.006,0,0,1,33.842,46.614,23.85,23.85,0,0,1,24.5,48.5Z" fill="#569848"/>
      <path id="Path_4" data-name="Path 4" d="M24.5,1a23.507,23.507,0,0,0-9.147,45.154A23.506,23.506,0,0,0,33.647,2.846,23.352,23.352,0,0,0,24.5,1m0-1A24.5,24.5,0,1,1,0,24.5,24.5,24.5,0,0,1,24.5,0Z" fill="#707070"/>
    </g>
    <path id="Path_91766" data-name="Path 91766" d="M-449.9,352.377c.172-.2.294-.374.44-.519q8.408-8.413,16.818-16.825a2.164,2.164,0,0,1,1.519-.778,1.806,1.806,0,0,1,1.706.966,1.78,1.78,0,0,1-.083,1.955,3.566,3.566,0,0,1-.475.543q-9.177,9.18-18.358,18.357c-1.129,1.129-2.112,1.126-3.25-.011-2.354-2.351-4.715-4.7-7.049-7.066a2.93,2.93,0,0,1-.73-1.207,1.764,1.764,0,0,1,.867-1.985,1.893,1.893,0,0,1,2.211.225c.144.123.276.26.41.394l5.486,5.485C-450.258,352.044-450.12,352.17-449.9,352.377Z" transform="translate(1068.926 -36.755)" fill="#fff" stroke="#fff" stroke-width="1"/>
  </g>
</svg>
